<svg width="680" height="400" viewBox="0 0 680 400" role="img" xmlns="http://www.w3.org/2000/svg">
<title>Abstract T cell interaction editorial artwork</title>
<desc>Two T cells with surface receptors and scattered signal particles in teal and navy editorial style for Science In Brief</desc>

<defs>
  <radialGradient id="cell-main" cx="38%" cy="32%" r="62%">
    <stop offset="0%" stop-color="#1e6b7a"/>
    <stop offset="50%" stop-color="#0d3d4a"/>
    <stop offset="100%" stop-color="#061820"/>
  </radialGradient>
  <radialGradient id="cell-secondary" cx="42%" cy="36%" r="58%">
    <stop offset="0%" stop-color="#3a2e6b"/>
    <stop offset="50%" stop-color="#1e1645"/>
    <stop offset="100%" stop-color="#0a0820"/>
  </radialGradient>
  <radialGradient id="sheen-main" cx="32%" cy="26%" r="48%">
    <stop offset="0%" stop-color="#4ecdc4" stop-opacity="0.22"/>
    <stop offset="100%" stop-color="#4ecdc4" stop-opacity="0"/>
  </radialGradient>
  <radialGradient id="sheen-sec" cx="36%" cy="30%" r="48%">
    <stop offset="0%" stop-color="#9b8fe8" stop-opacity="0.2"/>
    <stop offset="100%" stop-color="#9b8fe8" stop-opacity="0"/>
  </radialGradient>
  <radialGradient id="nucleus-main" cx="45%" cy="42%" r="55%">
    <stop offset="0%" stop-color="#2a8a9a" stop-opacity="0.45"/>
    <stop offset="100%" stop-color="#0d3d4a" stop-opacity="0"/>
  </radialGradient>
  <radialGradient id="nucleus-sec" cx="45%" cy="42%" r="55%">
    <stop offset="0%" stop-color="#6b5fc4" stop-opacity="0.4"/>
    <stop offset="100%" stop-color="#1e1645" stop-opacity="0"/>
  </radialGradient>
  <radialGradient id="bg-g" cx="35%" cy="40%" r="70%">
    <stop offset="0%" stop-color="#e6f2f2"/>
    <stop offset="100%" stop-color="#f6faf9"/>
  </radialGradient>
  <radialGradient id="glow-big" cx="50%" cy="50%" r="50%">
    <stop offset="0%" stop-color="#006a6a" stop-opacity="0.1"/>
    <stop offset="100%" stop-color="#006a6a" stop-opacity="0"/>
  </radialGradient>
  <radialGradient id="glow-small" cx="50%" cy="50%" r="50%">
    <stop offset="0%" stop-color="#5b4fcf" stop-opacity="0.1"/>
    <stop offset="100%" stop-color="#5b4fcf" stop-opacity="0"/>
  </radialGradient>
  <radialGradient id="rg-teal" cx="50%" cy="50%" r="50%">
    <stop offset="0%" stop-color="#56d9d9" stop-opacity="0.65"/>
    <stop offset="100%" stop-color="#006a6a" stop-opacity="0.15"/>
  </radialGradient>
  <radialGradient id="rg-purple" cx="50%" cy="50%" r="50%">
    <stop offset="0%" stop-color="#b8aff0" stop-opacity="0.65"/>
    <stop offset="100%" stop-color="#5b4fcf" stop-opacity="0.15"/>
  </radialGradient>
  <filter id="blur8"><feGaussianBlur stdDeviation="8"/></filter>
  <filter id="blur3"><feGaussianBlur stdDeviation="3"/></filter>
  <filter id="blur14"><feGaussianBlur stdDeviation="14"/></filter>
  <clipPath id="clip-main"><ellipse cx="248" cy="218" rx="158" ry="150"/></clipPath>
  <clipPath id="clip-sec"><ellipse cx="526" cy="168" rx="92" ry="88"/></clipPath>
</defs>

<!-- Background -->
<rect width="680" height="400" fill="url(#bg-g)"/>

<!-- Ambient glows -->
<ellipse cx="248" cy="218" rx="230" ry="220" fill="url(#glow-big)" filter="url(#blur14)"/>
<ellipse cx="526" cy="168" rx="140" ry="130" fill="url(#glow-small)" filter="url(#blur8)"/>

<!-- Far field particles -->
<circle cx="58" cy="44" r="1.5" fill="#006a6a" opacity="0.18"/>
<circle cx="72" cy="62" r="1" fill="#3b82c4" opacity="0.15"/>
<circle cx="88" cy="38" r="2" fill="#56d9d9" opacity="0.12"/>
<circle cx="620" cy="52" r="1.8" fill="#7c6faa" opacity="0.15"/>
<circle cx="640" cy="70" r="1.2" fill="#3b82c4" opacity="0.13"/>
<circle cx="50" cy="355" r="1.8" fill="#006a6a" opacity="0.15"/>
<circle cx="68" cy="372" r="1.2" fill="#7c6faa" opacity="0.12"/>
<circle cx="635" cy="360" r="2" fill="#3b82c4" opacity="0.14"/>
<circle cx="82" cy="180" r="5.5" fill="none" stroke="#006a6a" stroke-width="0.7" opacity="0.16"/>
<circle cx="82" cy="180" r="2" fill="#006a6a" opacity="0.14"/>
<circle cx="96" cy="300" r="4.5" fill="none" stroke="#7c6faa" stroke-width="0.6" opacity="0.14"/>
<circle cx="96" cy="300" r="1.8" fill="#7c6faa" opacity="0.13"/>
<circle cx="608" cy="320" r="5" fill="none" stroke="#56d9d9" stroke-width="0.7" opacity="0.15"/>
<circle cx="608" cy="320" r="1.8" fill="#56d9d9" opacity="0.13"/>
<circle cx="648" cy="190" r="4" fill="none" stroke="#3b82c4" stroke-width="0.6" opacity="0.14"/>

<!-- Far antigens -->
<g opacity="0.22">
  <line x1="56" y1="122" x2="56" y2="134" stroke="#8aacb8" stroke-width="0.9" stroke-linecap="round"/>
  <line x1="50" y1="117" x2="56" y2="122" stroke="#8aacb8" stroke-width="0.9" stroke-linecap="round"/>
  <line x1="62" y1="117" x2="56" y2="122" stroke="#8aacb8" stroke-width="0.9" stroke-linecap="round"/>
  <circle cx="49" cy="115" r="1.8" fill="#8aacb8"/>
  <circle cx="63" cy="115" r="1.8" fill="#8aacb8"/>
</g>

<!-- Interaction zone particles -->
<circle cx="408" cy="160" r="3.2" fill="#56d9d9" opacity="0.38"/>
<circle cx="422" cy="148" r="2.2" fill="#56d9d9" opacity="0.3"/>
<circle cx="436" cy="155" r="1.8" fill="#006a6a" opacity="0.35"/>
<circle cx="448" cy="143" r="2.8" fill="#56d9d9" opacity="0.28"/>
<circle cx="460" cy="153" r="1.5" fill="#3b82c4" opacity="0.3"/>
<circle cx="472" cy="142" r="2" fill="#56d9d9" opacity="0.25"/>
<circle cx="388" cy="172" r="1.8" fill="#8aacb8" opacity="0.32"/>
<circle cx="400" cy="178" r="1.2" fill="#006a6a" opacity="0.28"/>
<circle cx="416" cy="172" r="2.2" fill="#56d9d9" opacity="0.22"/>
<circle cx="432" cy="168" r="1.5" fill="#7c6faa" opacity="0.28"/>
<circle cx="446" cy="174" r="2" fill="#b8aff0" opacity="0.25"/>
<circle cx="462" cy="168" r="1.5" fill="#56d9d9" opacity="0.22"/>
<circle cx="415" cy="138" r="1" fill="#56d9d9" opacity="0.28"/>
<circle cx="440" cy="132" r="1.2" fill="#006a6a" opacity="0.22"/>
<circle cx="458" cy="138" r="1" fill="#7c6faa" opacity="0.25"/>
<circle cx="475" cy="130" r="1.5" fill="#b8aff0" opacity="0.22"/>

<!-- MAIN CELL (teal/navy) -->
<ellipse cx="248" cy="218" rx="172" ry="163" fill="none" stroke="#006a6a" stroke-width="0.5" opacity="0.15"/>
<ellipse cx="248" cy="218" rx="184" ry="175" fill="none" stroke="#006a6a" stroke-width="0.3" opacity="0.08"/>
<ellipse cx="248" cy="218" rx="158" ry="150" fill="url(#cell-main)"/>
<ellipse cx="248" cy="218" rx="158" ry="150" fill="url(#sheen-main)"/>
<g clip-path="url(#clip-main)" opacity="0.05">
  <ellipse cx="248" cy="218" rx="144" ry="136" fill="none" stroke="#56d9d9" stroke-width="1.2"/>
  <ellipse cx="248" cy="218" rx="120" ry="113" fill="none" stroke="#56d9d9" stroke-width="0.9"/>
  <ellipse cx="248" cy="218" rx="94" ry="89" fill="none" stroke="#56d9d9" stroke-width="0.7"/>
</g>
<ellipse cx="240" cy="210" rx="60" ry="55" fill="url(#nucleus-main)" filter="url(#blur3)"/>

<!-- Main cell receptors -->
<line x1="248" y1="68" x2="248" y2="88" stroke="#56d9d9" stroke-width="2" stroke-linecap="round"/>
<ellipse cx="248" cy="62" rx="10" ry="7" fill="url(#rg-teal)" stroke="#56d9d9" stroke-width="1.1"/>
<circle cx="248" cy="62" r="3.2" fill="#56d9d9" opacity="0.95"/>
<line x1="344" y1="100" x2="328" y2="117" stroke="#56d9d9" stroke-width="1.8" stroke-linecap="round"/>
<ellipse cx="350" cy="94" rx="9" ry="6.5" fill="url(#rg-teal)" stroke="#56d9d9" stroke-width="1" transform="rotate(-35 350 94)"/>
<circle cx="350" cy="94" r="2.8" fill="#56d9d9" opacity="0.9"/>
<line x1="406" y1="210" x2="386" y2="212" stroke="#3b82c4" stroke-width="1.6" stroke-linecap="round"/>
<ellipse cx="414" cy="210" rx="9" ry="5.5" fill="#3b82c4" opacity="0.28" stroke="#3b82c4" stroke-width="1"/>
<circle cx="414" cy="210" r="2.8" fill="#3b82c4" opacity="0.75"/>
<line x1="358" y1="332" x2="342" y2="314" stroke="#56d9d9" stroke-width="1.6" stroke-linecap="round"/>
<ellipse cx="365" cy="339" rx="9" ry="6" fill="url(#rg-teal)" stroke="#56d9d9" stroke-width="1" transform="rotate(28 365 339)"/>
<circle cx="365" cy="339" r="2.6" fill="#56d9d9" opacity="0.85"/>
<line x1="248" y1="368" x2="248" y2="348" stroke="#7c6faa" stroke-width="1.5" stroke-linecap="round"/>
<ellipse cx="248" cy="374" rx="8.5" ry="6" fill="#7c6faa" opacity="0.3" stroke="#7c6faa" stroke-width="1"/>
<circle cx="248" cy="374" r="2.5" fill="#7c6faa" opacity="0.75"/>
<line x1="136" y1="318" x2="153" y2="301" stroke="#56d9d9" stroke-width="1.5" stroke-linecap="round"/>
<ellipse cx="129" cy="325" rx="9" ry="6" fill="url(#rg-teal)" stroke="#56d9d9" stroke-width="0.9" transform="rotate(-28 129 325)"/>
<circle cx="129" cy="325" r="2.5" fill="#56d9d9" opacity="0.8"/>
<line x1="90" y1="220" x2="110" y2="220" stroke="#3b82c4" stroke-width="1.5" stroke-linecap="round"/>
<ellipse cx="82" cy="220" rx="9" ry="5.5" fill="#3b82c4" opacity="0.24" stroke="#3b82c4" stroke-width="0.9"/>
<circle cx="82" cy="220" r="2.5" fill="#3b82c4" opacity="0.65"/>
<line x1="152" y1="98" x2="168" y2="116" stroke="#56d9d9" stroke-width="1.6" stroke-linecap="round"/>
<ellipse cx="145" cy="92" rx="9" ry="6.5" fill="url(#rg-teal)" stroke="#56d9d9" stroke-width="1" transform="rotate(30 145 92)"/>
<circle cx="145" cy="92" r="2.8" fill="#56d9d9" opacity="0.85"/>

<!-- Main cell micro bumps -->
<circle cx="292" cy="70" r="4" fill="#56d9d9" opacity="0.3"/>
<circle cx="204" cy="72" r="3.5" fill="#56d9d9" opacity="0.25"/>
<circle cx="380" cy="148" r="3" fill="#3b82c4" opacity="0.25"/>
<circle cx="128" cy="268" r="3" fill="#7c6faa" opacity="0.25"/>
<circle cx="372" cy="282" r="2.8" fill="#56d9d9" opacity="0.22"/>

<!-- Main cell emitted particles -->
<circle cx="248" cy="36" r="2.8" fill="#56d9d9" opacity="0.45"/>
<circle cx="262" cy="30" r="1.8" fill="#006a6a" opacity="0.38"/>
<circle cx="234" cy="28" r="1.4" fill="#3b82c4" opacity="0.32"/>
<circle cx="372" cy="72" r="2.5" fill="#56d9d9" opacity="0.4"/>
<circle cx="384" cy="62" r="1.6" fill="#006a6a" opacity="0.32"/>
<circle cx="436" cy="204" r="2.2" fill="#3b82c4" opacity="0.38"/>
<circle cx="448" cy="196" r="1.5" fill="#56d9d9" opacity="0.3"/>
<circle cx="388" cy="354" r="2.2" fill="#56d9d9" opacity="0.35"/>
<circle cx="104" cy="342" r="2" fill="#56d9d9" opacity="0.32"/>
<circle cx="52" cy="212" r="2" fill="#3b82c4" opacity="0.3"/>
<circle cx="120" cy="68" r="2.2" fill="#56d9d9" opacity="0.35"/>
<circle cx="108" cy="60" r="1.5" fill="#3b82c4" opacity="0.28"/>

<!-- Antigens near main cell -->
<g opacity="0.45">
  <line x1="488" y1="248" x2="474" y2="264" stroke="#8aacb8" stroke-width="1.1" stroke-linecap="round"/>
  <line x1="482" y1="242" x2="488" y2="248" stroke="#8aacb8" stroke-width="1.1" stroke-linecap="round"/>
  <line x1="494" y1="242" x2="488" y2="248" stroke="#8aacb8" stroke-width="1.1" stroke-linecap="round"/>
  <circle cx="481" cy="240" r="2.2" fill="#8aacb8"/>
  <circle cx="495" cy="240" r="2.2" fill="#8aacb8"/>
</g>

<!-- SECONDARY CELL (purple/indigo) -->
<ellipse cx="526" cy="168" rx="104" ry="99" fill="none" stroke="#7c6faa" stroke-width="0.5" opacity="0.18"/>
<ellipse cx="526" cy="168" rx="92" ry="88" fill="url(#cell-secondary)"/>
<ellipse cx="526" cy="168" rx="92" ry="88" fill="url(#sheen-sec)"/>
<g clip-path="url(#clip-sec)" opacity="0.06">
  <ellipse cx="526" cy="168" rx="80" ry="76" fill="none" stroke="#b8aff0" stroke-width="1"/>
  <ellipse cx="526" cy="168" rx="62" ry="59" fill="none" stroke="#b8aff0" stroke-width="0.8"/>
</g>
<ellipse cx="520" cy="162" rx="34" ry="31" fill="url(#nucleus-sec)" filter="url(#blur3)"/>

<!-- Secondary cell receptors -->
<line x1="526" y1="80" x2="526" y2="96" stroke="#b8aff0" stroke-width="1.8" stroke-linecap="round"/>
<ellipse cx="526" cy="74" rx="8.5" ry="6" fill="url(#rg-purple)" stroke="#b8aff0" stroke-width="1"/>
<circle cx="526" cy="74" r="2.8" fill="#b8aff0" opacity="0.92"/>
<line x1="590" y1="108" x2="576" y2="122" stroke="#b8aff0" stroke-width="1.5" stroke-linecap="round"/>
<ellipse cx="596" cy="103" rx="8" ry="5.5" fill="url(#rg-purple)" stroke="#b8aff0" stroke-width="0.9" transform="rotate(-35 596 103)"/>
<circle cx="596" cy="103" r="2.4" fill="#b8aff0" opacity="0.88"/>
<line x1="618" y1="168" x2="600" y2="170" stroke="#9b8fe8" stroke-width="1.4" stroke-linecap="round"/>
<ellipse cx="626" cy="168" rx="8" ry="5" fill="#9b8fe8" opacity="0.28" stroke="#9b8fe8" stroke-width="0.9"/>
<circle cx="626" cy="168" r="2.4" fill="#9b8fe8" opacity="0.72"/>
<line x1="526" y1="256" x2="526" y2="238" stroke="#7c6faa" stroke-width="1.4" stroke-linecap="round"/>
<ellipse cx="526" cy="262" rx="7.5" ry="5.5" fill="#7c6faa" opacity="0.3" stroke="#7c6faa" stroke-width="0.9"/>
<circle cx="526" cy="262" r="2.3" fill="#7c6faa" opacity="0.72"/>
<line x1="434" y1="166" x2="452" y2="167" stroke="#b8aff0" stroke-width="1.5" stroke-linecap="round"/>
<ellipse cx="427" cy="166" rx="8.5" ry="5.5" fill="url(#rg-purple)" stroke="#b8aff0" stroke-width="1"/>
<circle cx="427" cy="166" r="2.6" fill="#b8aff0" opacity="0.88"/>
<line x1="462" y1="104" x2="476" y2="119" stroke="#b8aff0" stroke-width="1.4" stroke-linecap="round"/>
<ellipse cx="456" cy="99" rx="8" ry="5.5" fill="url(#rg-purple)" stroke="#b8aff0" stroke-width="0.9" transform="rotate(28 456 99)"/>
<circle cx="456" cy="99" r="2.4" fill="#b8aff0" opacity="0.85"/>

<!-- Secondary cell micro bumps -->
<circle cx="556" cy="82" r="3.5" fill="#b8aff0" opacity="0.28"/>
<circle cx="496" cy="82" r="3" fill="#b8aff0" opacity="0.22"/>
<circle cx="608" cy="138" r="2.5" fill="#9b8fe8" opacity="0.22"/>

<!-- Secondary cell emitted particles -->
<circle cx="526" cy="52" r="2.5" fill="#b8aff0" opacity="0.42"/>
<circle cx="540" cy="44" r="1.6" fill="#7c6faa" opacity="0.35"/>
<circle cx="514" cy="42" r="1.2" fill="#b8aff0" opacity="0.28"/>
<circle cx="618" cy="84" r="2.2" fill="#b8aff0" opacity="0.38"/>
<circle cx="632" cy="78" r="1.5" fill="#9b8fe8" opacity="0.3"/>
<circle cx="648" cy="158" r="2" fill="#9b8fe8" opacity="0.32"/>
<circle cx="546" cy="278" r="2" fill="#7c6faa" opacity="0.32"/>
<circle cx="534" cy="286" r="1.4" fill="#b8aff0" opacity="0.26"/>
<circle cx="402" cy="86" r="2" fill="#b8aff0" opacity="0.3"/>

<!-- Antigen near secondary cell -->
<g opacity="0.4">
  <line x1="560" y1="310" x2="554" y2="296" stroke="#8aacb8" stroke-width="0.9" stroke-linecap="round"/>
  <line x1="554" y1="315" x2="560" y2="310" stroke="#8aacb8" stroke-width="0.9" stroke-linecap="round"/>
  <line x1="566" y1="315" x2="560" y2="310" stroke="#8aacb8" stroke-width="0.9" stroke-linecap="round"/>
  <circle cx="553" cy="317" r="1.8" fill="#8aacb8"/>
  <circle cx="567" cy="317" r="1.8" fill="#8aacb8"/>
</g>

<!-- Watermark -->
<text x="56" y="392" font-family="sans-serif" font-size="7" fill="#0d3d4a" opacity="0.2" letter-spacing="0.18em">SCIENCE, IN BRIEF</text>

</svg>
